<?xml version="1.0" encoding="UTF-8" standalone="no"?>
<!-- Created with Inkscape (http://www.inkscape.org/) -->

<svg
   width="210mm"
   height="297mm"
   viewBox="0 0 210 297"
   version="1.1"
   id="svg1"
   inkscape:version="1.3.2 (091e20e, 2023-11-25, custom)"
   sodipodi:docname="appIcon.svg"
   inkscape:export-filename="appIcon.png"
   inkscape:export-xdpi="96"
   inkscape:export-ydpi="96"
   xmlns:inkscape="http://www.inkscape.org/namespaces/inkscape"
   xmlns:sodipodi="http://sodipodi.sourceforge.net/DTD/sodipodi-0.dtd"
   xmlns="http://www.w3.org/2000/svg"
   xmlns:svg="http://www.w3.org/2000/svg">
  <sodipodi:namedview
     id="namedview1"
     pagecolor="#ffffff"
     bordercolor="#000000"
     borderopacity="0.25"
     inkscape:showpageshadow="2"
     inkscape:pageopacity="0.0"
     inkscape:pagecheckerboard="0"
     inkscape:deskcolor="#d1d1d1"
     inkscape:document-units="mm"
     inkscape:zoom="0.72426347"
     inkscape:cx="474.27492"
     inkscape:cy="363.81788"
     inkscape:window-width="1920"
     inkscape:window-height="1009"
     inkscape:window-x="-8"
     inkscape:window-y="-8"
     inkscape:window-maximized="1"
     inkscape:current-layer="layer1" />
  <defs
     id="defs1" />
  <g
     inkscape:label="Layer 1"
     inkscape:groupmode="layer"
     id="layer1">
    <rect
       style="fill:#000000;fill-opacity:0;stroke:#000000;stroke-width:8;stroke-dasharray:none;stroke-opacity:1"
       id="rect1"
       width="119.45758"
       height="119.09228"
       x="44.568264"
       y="81.464943"
       rx="28.129156"
       ry="28.129156" />
    <path
       style="display:inline;fill:#000000;fill-opacity:0;stroke:#000000;stroke-width:4.06501;stroke-dasharray:none;stroke-opacity:1"
       d="M 45.298893,154.34502 H 163.66052"
       id="path1" />
    <path
       style="fill:none;fill-opacity:1;stroke:#000000;stroke-width:8;stroke-dasharray:none;stroke-opacity:1"
       id="path3"
       sodipodi:type="arc"
       sodipodi:cx="-49.757111"
       sodipodi:cy="-168.2381"
       sodipodi:rx="30.559149"
       sodipodi:ry="30.559149"
       sodipodi:start="6.179929"
       sodipodi:end="3.9519471"
       sodipodi:open="true"
       sodipodi:arc-type="arc"
       d="m -19.360726,-171.38792 a 30.559149,30.559149 0 0 1 -20.716279,32.13529 30.559149,30.559149 0 0 1 -35.869246,-13.23775 30.559149,30.559149 0 0 1 5.126502,-37.88878"
       transform="rotate(160)" />
    <path
       style="fill:#000000;fill-opacity:1;stroke:none;stroke-width:0.213;stroke-dasharray:none;stroke-opacity:1"
       id="path6"
       sodipodi:type="arc"
       sodipodi:cx="142.45389"
       sodipodi:cy="102.85426"
       sodipodi:rx="7.4911566"
       sodipodi:ry="7.4911566"
       sodipodi:start="0"
       sodipodi:end="6.2367477"
       sodipodi:arc-type="arc"
       d="m 149.94504,102.85426 a 7.4911566,7.4911566 0 0 1 -7.40419,7.49066 7.4911566,7.4911566 0 0 1 -7.5761,-7.31674 7.4911566,7.4911566 0 0 1 7.22829,-7.66053 7.4911566,7.4911566 0 0 1 7.74393,7.13887"
       sodipodi:open="true" />
    <path
       style="fill:#000000;fill-opacity:1;stroke:#000000;stroke-width:3;stroke-dasharray:none;stroke-opacity:1;stroke-linecap:round"
       d="m 58.450183,163.66051 c 34.339485,0 34.339485,0 34.339485,0"
       id="path7" />
    <path
       style="fill:#000000;fill-opacity:1;stroke:#000000;stroke-width:3;stroke-linecap:round;stroke-dasharray:none;stroke-opacity:1"
       d="m 113.80411,163.66051 c 24.45996,0 24.45996,0 24.45996,0"
       id="path7-5" />
    <path
       style="fill:#000000;fill-opacity:1;stroke:#000000;stroke-width:3;stroke-linecap:round;stroke-dasharray:none;stroke-opacity:1"
       d="m 58.450183,169.67366 c 13.153937,0 13.153937,0 13.153937,0"
       id="path7-04" />
    <path
       style="fill:#000000;fill-opacity:1;stroke:#000000;stroke-width:3;stroke-linecap:round;stroke-dasharray:none;stroke-opacity:1"
       d="m 122.08707,169.67366 c 13.15394,0 13.15394,0 13.15394,0"
       id="path7-04-7" />
    <path
       style="fill:#000000;fill-opacity:1;stroke:#000000;stroke-width:3;stroke-linecap:round;stroke-dasharray:none;stroke-opacity:1"
       d="m 112.54588,169.67366 c 0.70427,0 0.70427,0 0.70427,0"
       id="path7-04-4" />
    <path
       style="fill:#000000;fill-opacity:1;stroke:#000000;stroke-width:3;stroke-linecap:round;stroke-dasharray:none;stroke-opacity:1"
       d="m 134.16979,187.71311 c 4.67604,0 4.67604,0 4.67604,0"
       id="path7-04-2" />
    <path
       style="fill:#000000;fill-opacity:1;stroke:#000000;stroke-width:3;stroke-linecap:round;stroke-dasharray:none;stroke-opacity:1"
       d="m 109.1843,175.68681 c 38.95947,0 38.95947,0 38.95947,0"
       id="path7-04-6" />
    <path
       style="fill:#000000;fill-opacity:1;stroke:#000000;stroke-width:3;stroke-linecap:round;stroke-dasharray:none;stroke-opacity:1"
       d="m 66.527152,187.71311 c 13.153937,0 13.153937,0 13.153937,0"
       id="path7-04-45" />
    <path
       style="fill:#000000;fill-opacity:1;stroke:#000000;stroke-width:3;stroke-linecap:round;stroke-dasharray:none;stroke-opacity:1"
       d="m 98.631995,181.69996 c 34.714735,0 34.714735,0 34.714735,0"
       id="path7-04-9" />
    <path
       style="fill:#000000;fill-opacity:1;stroke:#000000;stroke-width:3;stroke-linecap:round;stroke-dasharray:none;stroke-opacity:1"
       d="m 76.849295,181.69996 c 13.153941,0 13.153941,0 13.153941,0"
       id="path7-04-452" />
    <path
       style="fill:#000000;fill-opacity:1;stroke:#000000;stroke-width:3;stroke-linecap:round;stroke-dasharray:none;stroke-opacity:1"
       d="m 146.33932,163.66051 c 2.04183,0 2.04183,0 2.04183,0"
       id="path7-04-0" />
    <path
       style="fill:#000000;fill-opacity:1;stroke:#000000;stroke-width:3;stroke-linecap:round;stroke-dasharray:none;stroke-opacity:1"
       d="m 119.04875,187.71311 h 6.52178"
       id="path7-04-8"
       sodipodi:nodetypes="cc" />
    <path
       style="fill:#000000;fill-opacity:1;stroke:#000000;stroke-width:3;stroke-linecap:round;stroke-dasharray:none;stroke-opacity:1"
       d="m 144.07793,169.67366 c 4.03036,0 4.03036,0 4.03036,0"
       id="path7-04-27" />
    <path
       style="fill:#000000;fill-opacity:1;stroke:#000000;stroke-width:3;stroke-linecap:round;stroke-dasharray:none;stroke-opacity:1"
       d="m 88.280348,187.71311 c 22.169142,0 22.169142,0 22.169142,0"
       id="path7-04-3" />
    <path
       style="fill:#000000;fill-opacity:1;stroke:#000000;stroke-width:3;stroke-linecap:round;stroke-dasharray:none;stroke-opacity:1"
       d="m 80.441039,169.67366 c 23.267921,0 23.267921,0 23.267921,0"
       id="path7-04-97" />
    <path
       style="fill:#000000;fill-opacity:1;stroke:#000000;stroke-width:3;stroke-linecap:round;stroke-dasharray:none;stroke-opacity:1"
       d="m 60.766642,181.69996 c 7.453894,0 7.453894,0 7.453894,0"
       id="path7-04-1" />
    <path
       style="fill:#000000;fill-opacity:1;stroke:#000000;stroke-width:3;stroke-linecap:round;stroke-dasharray:none;stroke-opacity:1"
       d="m 58.470408,175.68681 c 40.941261,0 40.941261,0 40.941261,0"
       id="path7-04-22" />
    <path
       style="fill:#000000;fill-opacity:1;stroke:#000000;stroke-width:3;stroke-linecap:round;stroke-dasharray:none;stroke-opacity:1"
       d="m 141.97549,181.69996 c 3.64542,0 3.64542,0 3.64542,0"
       id="path7-04-91" />
    <path
       style="fill:#000000;fill-opacity:1;stroke:#000000;stroke-width:3;stroke-linecap:round;stroke-dasharray:none;stroke-opacity:1"
       d="m 100.86492,163.66051 c 4.86394,0 4.86394,0 4.86394,0"
       id="path7-3" />
  </g>
</svg>
