<?xml version="1.0" encoding="UTF-8" standalone="no"?>
<svg
   id="uuid-e1c6a299-6624-48c3-b5ae-79a39ae8c01c"
   width="673.03998"
   height="673.03998"
   viewBox="0 0 673.03998 673.03997"
   version="1.1"
   sodipodi:docname="camera.svg"
   inkscape:version="1.3.2 (091e20e, 2023-11-25, custom)"
   xmlns:inkscape="http://www.inkscape.org/namespaces/inkscape"
   xmlns:sodipodi="http://sodipodi.sourceforge.net/DTD/sodipodi-0.dtd"
   xmlns="http://www.w3.org/2000/svg"
   xmlns:svg="http://www.w3.org/2000/svg">
  <sodipodi:namedview
     id="namedview2"
     pagecolor="#ffffff"
     bordercolor="#000000"
     borderopacity="0.25"
     inkscape:showpageshadow="2"
     inkscape:pageopacity="0.0"
     inkscape:pagecheckerboard="0"
     inkscape:deskcolor="#d1d1d1"
     inkscape:zoom="0.813"
     inkscape:cx="337.63838"
     inkscape:cy="256.45756"
     inkscape:window-width="1920"
     inkscape:window-height="1009"
     inkscape:window-x="-8"
     inkscape:window-y="-8"
     inkscape:window-maximized="1"
     inkscape:current-layer="uuid-e1c6a299-6624-48c3-b5ae-79a39ae8c01c" />
  <defs
     id="defs1">
    <style
       id="style1">.uuid-928bb166-a93a-439b-8bd2-61612cc34ed6,.uuid-195bceb6-83b6-4d3c-94db-aec1df13ee43{fill:none;stroke:#000;stroke-miterlimit:10;stroke-width:40px;}.uuid-195bceb6-83b6-4d3c-94db-aec1df13ee43{stroke-linecap:round;}</style>
  </defs>
  <path
     id="path2"
     style="stroke-width:20;stroke-dasharray:none;fill:#ffffff;fill-opacity:0;stroke:#000000;stroke-opacity:1"
     class="uuid-195bceb6-83b6-4d3c-94db-aec1df13ee43"
     d="m 336.51999,285.73499 c 43.91,0 79.51,35.6 79.51,79.51 m 55.59001,-3e-5 A 135.10001,135.10001 0 0 1 336.51999,500.34497 135.10001,135.10001 0 0 1 201.41998,365.24496 a 135.10001,135.10001 0 0 1 135.10001,-135.1 135.10001,135.10001 0 0 1 135.10001,135.1 z M 462.03906,89.695312 c -15.85998,10e-7 -28.71875,12.860488 -28.71875,28.730468 0,15.85999 -12.86072,28.71875 -28.7207,28.71875 H 76.060547 C 39.570583,147.14453 10,176.72511 10,213.20508 v 37.09961 86.21093 180.76954 c 0,36.47996 29.570583,66.06054 66.060547,66.06054 H 596.98047 c 36.48996,0 66.05859,-29.58058 66.05859,-66.06054 V 213.20508 c 0,-36.47997 -29.56863,-66.06055 -66.05859,-66.06055 h -19.38086 c -15.85998,0 -28.71875,-12.86048 -28.71875,-28.73047 0,-15.85998 -12.86072,-28.718748 -28.7207,-28.718748 z" />
</svg>
