<?xml version="1.0" encoding="UTF-8"?><svg id="uuid-92c052bb-02c7-495d-b824-d92f4a1dc166" xmlns="http://www.w3.org/2000/svg" width="1000" height="1000" viewBox="0 0 1000 1000"><defs><style>.uuid-7c6c8117-69dd-4577-aea3-661e81c8f37f,.uuid-d270209c-0f40-4ab6-b10e-9c4bd66b721f{fill:none;stroke:#000;stroke-miterlimit:10;stroke-width:40px;}.uuid-d270209c-0f40-4ab6-b10e-9c4bd66b721f{stroke-linecap:round;}</style></defs><path class="uuid-d270209c-0f40-4ab6-b10e-9c4bd66b721f" d="m723.43,664.94c-12.29,21.28-39.51,28.58-60.79,16.29l-19.97-11.53c-13.77-7.95-30.73-7.95-44.5,0l-1.01.59c-13.77,7.95-22.25,22.64-22.25,38.54v23.07c0,24.58-19.92,44.5-44.5,44.5h-61.77c-24.58,0-44.5-19.92-44.5-44.5v-23.07c0-15.9-8.48-30.59-22.25-38.54l-1.01-.59c-13.77-7.95-30.73-7.95-44.5,0l-19.97,11.53c-21.28,12.29-48.5,5-60.79-16.29l-30.89-53.5c-12.29-21.28-5-48.5,16.29-60.79l19.98-11.53c13.77-7.95,22.25-22.64,22.25-38.54v-1.17c0-15.9-8.48-30.59-22.25-38.54l-19.98-11.53c-21.29-12.29-28.58-39.5-16.29-60.79l30.89-53.5c12.29-21.28,39.51-28.58,60.79-16.29l19.97,11.53c13.77,7.95,30.73,7.95,44.5,0l1.01-.59c13.77-7.95,22.25-22.64,22.25-38.54v-23.07c0-24.58,19.92-44.5,44.5-44.5h61.77c24.58,0,44.5,19.92,44.5,44.5v23.07c0,15.9,8.48,30.59,22.25,38.54l1.01.59c13.77,7.95,30.73,7.95,44.5,0l19.97-11.53c21.28-12.29,48.5-5,60.79,16.29l30.89,53.5c12.29,21.28,5,48.5-16.29,60.79l-19.97,11.53c-13.77,7.95-22.25,22.64-22.25,38.54v1.17c0,15.9,8.48,30.59,22.25,38.54l19.97,11.53"/><circle class="uuid-7c6c8117-69dd-4577-aea3-661e81c8f37f" cx="499.87" cy="500" r="105.06"/></svg>