<?xml version="1.0" encoding="UTF-8"?><svg id="uuid-89c23274-0642-42ac-a563-a5395e13b200" xmlns="http://www.w3.org/2000/svg" width="1000" height="1000" viewBox="0 0 1000 1000"><defs><style>.uuid-20385b2b-6767-44f3-bf15-00cc03bd24f4{fill:none;stroke:#000;stroke-linecap:round;stroke-miterlimit:10;stroke-width:40px;}</style></defs><path class="uuid-20385b2b-6767-44f3-bf15-00cc03bd24f4" d="m292.61,524.25v-12.05c0-21.03-17.04-38.07-38.07-38.07-23.26,0-38.14-18.95-38.14-38.42,0-10.59,4.39-21.33,14.23-29.27l205.51-165.86c37.26-30.07,90.46-30.07,127.72,0l205.51,165.86c27.94,22.55,11.99,67.69-23.91,67.69-21.03,0-38.07,17.04-38.07,38.07v231.71c0,21.03-17.04,38.07-38.07,38.07h-63.84c-21.03,0-38.07-17.04-38.07-38.07v-95.84c0-21.02-17.04-38.07-38.07-38.07h-58.68c-21.03,0-38.07,17.05-38.07,38.07v95.84c0,21.03-17.04,38.07-38.07,38.07h-63.84c-21.03,0-38.07-17.04-38.07-38.07v-133.45"/></svg>