<?xml version="1.0" encoding="UTF-8"?><svg id="uuid-c3cbe960-63ea-4b4f-a27f-4979f1f855aa" xmlns="http://www.w3.org/2000/svg" width="1000" height="1000" viewBox="0 0 1000 1000"><defs><style>.uuid-5bbac78f-771d-45ef-ade6-9b89f8d293d8{fill:#fff;}</style></defs><path d="m796.45,381.36c0,11.05-8.96,20-20,20h-117.81c-.85,0-1.7-.02-2.54-.06-7.27-28.02-29.38-50.13-57.4-57.4-.04-.84-.06-1.69-.06-2.54v-117.81c0-11.04,8.95-20,20-20s20,8.96,20,20v117.81c0,11.03,8.97,20,20,20h117.81c11.04,0,20,8.96,20,20Z"/><path d="m364.74,598.49c15.47,6.58,27.64,19.46,33.24,35.41-15.48-6.57-27.64-19.46-33.24-35.41Z"/><path d="m401.36,656.11v115.45c0,11.05-8.96,20-20,20s-20-8.95-20-20v-117.81c0-11.03-8.98-20-20-20h-117.81c-11.05,0-20-8.95-20-20s8.95-20,20-20h117.81c.48,0,.96.01,1.44.02,5.83,30.37,28.88,54.68,58.56,62.34Z"/><rect class="uuid-5bbac78f-771d-45ef-ade6-9b89f8d293d8" x="341.36" y="361.36" width="80" height="40"/><rect class="uuid-5bbac78f-771d-45ef-ade6-9b89f8d293d8" x="598.64" y="578.64" width="40" height="80"/><path d="m401.36,341.36h-40v-117.81c0-11.04,8.95-20,20-20s20,8.96,20,20v117.81Z"/><rect x="361.36" y="361.36" width="40" height="40"/><path d="m578.64,598.64v40h-157.28c-8.29,0-16.19-1.69-23.38-4.74-15.48-6.57-27.64-19.46-33.24-35.41-2.19-6.21-3.38-12.9-3.38-19.85v-157.28h40v157.28c0,11.03,8.97,20,20,20h157.28Z"/><rect x="598.64" y="598.64" width="40" height="40"/><path d="m796.45,618.64c0,11.05-8.96,20-20,20h-117.81v-40h117.81c11.04,0,20,8.96,20,20Z"/><path d="m638.64,421.36v355.09c0,11.05-8.96,20-20,20s-20-8.95-20-20v-355.09c0-11.02-8.98-20-20-20H223.55c-11.05,0-20-8.95-20-20s8.95-20,20-20h355.09c9.26,0,18.03,2.11,25.87,5.87,12.33,5.92,22.34,15.93,28.26,28.26,3.76,7.84,5.87,16.61,5.87,25.87Z"/></svg>