<?xml version="1.0" encoding="UTF-8"?><svg id="uuid-29589cbb-4bc8-4ef1-8f57-b94c7c21162e" xmlns="http://www.w3.org/2000/svg" width="1000" height="1000" viewBox="0 0 1000 1000"><defs><style>.uuid-310a9b2c-5100-4891-8433-3fec87c9f8bb{fill:none;stroke:#000;stroke-linecap:round;stroke-linejoin:round;stroke-width:40px;}</style></defs><path class="uuid-310a9b2c-5100-4891-8433-3fec87c9f8bb" d="m712.44,310.57h-424.88c-61.81,0-111.92,84.81-111.92,189.42s50.11,189.43,111.92,189.43h0s424.89,0,424.89,0h0c61.81,0,111.92-84.81,111.92-189.43s-50.11-189.42-111.92-189.42-111.91,84.8-111.91,189.42c0,45.26,9.38,86.82,25.03,119.4"/><path class="uuid-310a9b2c-5100-4891-8433-3fec87c9f8bb" d="m511.57,384.65c-14.51,31.95-23.13,71.95-23.13,115.35s8.63,83.41,23.13,115.35"/><path class="uuid-310a9b2c-5100-4891-8433-3fec87c9f8bb" d="m326.12,384.65c-14.51,31.95-23.13,71.95-23.13,115.35s8.63,83.41,23.13,115.35"/><line class="uuid-310a9b2c-5100-4891-8433-3fec87c9f8bb" x1="425.09" y1="500" x2="369.86" y2="500"/><g><line class="uuid-310a9b2c-5100-4891-8433-3fec87c9f8bb" x1="433.12" y1="585.3" x2="377.9" y2="585.3"/><line class="uuid-310a9b2c-5100-4891-8433-3fec87c9f8bb" x1="433.12" y1="414.7" x2="377.9" y2="414.7"/></g><path class="uuid-310a9b2c-5100-4891-8433-3fec87c9f8bb" d="m761.4,500c0-52.9-19.26-95.79-43.01-95.79"/></svg>