<?xml version="1.0" encoding="UTF-8"?><svg id="uuid-e1c6a299-6624-48c3-b5ae-79a39ae8c01c" xmlns="http://www.w3.org/2000/svg" width="1000" height="1000" viewBox="0 0 1000 1000"><defs><style>.uuid-928bb166-a93a-439b-8bd2-61612cc34ed6,.uuid-195bceb6-83b6-4d3c-94db-aec1df13ee43{fill:none;stroke:#000;stroke-miterlimit:10;stroke-width:40px;}.uuid-195bceb6-83b6-4d3c-94db-aec1df13ee43{stroke-linecap:round;}</style></defs><path class="uuid-195bceb6-83b6-4d3c-94db-aec1df13ee43" d="m173.48,413.79v-37.1c0-36.48,29.57-66.06,66.06-66.06h328.54c15.86,0,28.72-12.86,28.72-28.72h0c0-15.87,12.86-28.73,28.72-28.73h58.12c15.86,0,28.72,12.86,28.72,28.72h0c0,15.87,12.86,28.73,28.72,28.73h19.38c36.49,0,66.06,29.58,66.06,66.06v304.08c0,36.48-29.57,66.06-66.06,66.06H239.54c-36.49,0-66.06-29.58-66.06-66.06v-180.77"/><circle class="uuid-928bb166-a93a-439b-8bd2-61612cc34ed6" cx="500" cy="528.73" r="135.1"/><path class="uuid-195bceb6-83b6-4d3c-94db-aec1df13ee43" d="m500,449.22c43.91,0,79.51,35.6,79.51,79.51"/></svg>