<?xml version="1.0" encoding="UTF-8"?><svg id="uuid-c461d389-cfa9-437e-ba7c-037ba603315d" xmlns="http://www.w3.org/2000/svg" width="1000" height="1000" viewBox="0 0 1000 1000"><defs><style>.uuid-b0145d64-5c61-4c52-85fb-3977a84b72b7,.uuid-f639ea3f-3b73-482d-a77a-57a810f1c4f0{fill:none;stroke:#000;stroke-miterlimit:10;stroke-width:40px;}.uuid-f639ea3f-3b73-482d-a77a-57a810f1c4f0{stroke-linecap:round;}</style></defs><path class="uuid-b0145d64-5c61-4c52-85fb-3977a84b72b7" d="m607.44,500c0,24.46-8.17,47.01-21.94,65.07-7.62,10-16.95,18.62-27.56,25.42-16.72,10.72-36.6,16.94-57.94,16.94-59.34,0-107.44-48.1-107.44-107.44s48.1-107.44,107.44-107.44,107.44,48.1,107.44,107.44Z"/><path class="uuid-f639ea3f-3b73-482d-a77a-57a810f1c4f0" d="m603.95,527.25s7.36,58.19,66.45,66.53c40.59,5.73,65.95-25.94,73.99-56.55,3.12-11.88,2.78-24.57,2.78-37.22,0-136.51-110.67-247.18-247.18-247.18s-247.18,110.67-247.18,247.18,110.67,247.18,247.18,247.18c35.62,0,69.48-7.53,100.07-21.1"/></svg>